<?xml version="1.0" encoding="utf-8"?>
<!-- Generator: Adobe Illustrator 26.0.3, SVG Export Plug-In . SVG Version: 6.00 Build 0)  -->
<svg version="1.1" id="Camada_1" xmlns="http://www.w3.org/2000/svg" xmlns:xlink="http://www.w3.org/1999/xlink" x="0px" y="0px"
	 viewBox="0 0 60.76 20.94" enable-background="new 0 0 60.76 20.94" xml:space="preserve">
<path fill="#FAB312" d="M50.36,20.4h-40c-5.5,0-10-4.5-10-10v0c0-5.5,4.5-10,10-10h40c5.5,0,10,4.5,10,10v0
	C60.36,15.9,55.86,20.4,50.36,20.4z"/>
<g>
	<path fill="#FFFFFF" d="M14.95,13.39c-0.63,0.33-1.42,0.49-2.36,0.49c-1.22,0-2.2-0.38-2.93-1.15c-0.73-0.77-1.1-1.78-1.1-3.03
		c0-1.34,0.41-2.43,1.24-3.26s1.87-1.24,3.13-1.24c0.81,0,1.49,0.12,2.02,0.35v1.38c-0.57-0.34-1.19-0.5-1.88-0.5
		c-0.91,0-1.65,0.29-2.21,0.87s-0.85,1.36-0.85,2.33c0,0.93,0.26,1.66,0.79,2.21c0.53,0.55,1.22,0.82,2.08,0.82
		c0.79,0,1.48-0.19,2.06-0.56V13.39z"/>
	<path fill="#FFFFFF" d="M19.06,13.89c-0.93,0-1.67-0.28-2.22-0.84s-0.83-1.3-0.83-2.23c0-1.01,0.29-1.79,0.86-2.36
		s1.35-0.85,2.33-0.85c0.94,0,1.67,0.28,2.19,0.83s0.79,1.31,0.79,2.29c0,0.96-0.28,1.72-0.85,2.3S20.01,13.89,19.06,13.89z
		 M19.12,8.69c-0.53,0-0.95,0.19-1.26,0.56s-0.46,0.88-0.46,1.54c0,0.63,0.16,1.12,0.47,1.48c0.31,0.36,0.73,0.54,1.25,0.54
		c0.54,0,0.95-0.18,1.23-0.53c0.29-0.35,0.43-0.86,0.43-1.52c0-0.66-0.14-1.17-0.43-1.53S19.66,8.69,19.12,8.69z"/>
	<path fill="#FFFFFF" d="M28.91,13.75h-1.36v-3.38c0-1.12-0.4-1.68-1.19-1.68c-0.41,0-0.76,0.16-1.03,0.47s-0.4,0.7-0.4,1.17v3.42
		h-1.37v-6h1.37v1h0.02c0.45-0.76,1.1-1.14,1.95-1.14c0.65,0,1.15,0.21,1.49,0.64c0.34,0.42,0.52,1.04,0.52,1.84V13.75z"/>
	<path fill="#FFFFFF" d="M33.73,13.68c-0.27,0.13-0.62,0.2-1.05,0.2c-1.16,0-1.75-0.56-1.75-1.68V8.81h-1V7.75h1V6.36l1.36-0.39
		v1.78h1.44v1.07h-1.44v3c0,0.35,0.06,0.61,0.19,0.76s0.34,0.23,0.64,0.23c0.23,0,0.43-0.07,0.6-0.2V13.68z"/>
	<path fill="#FFFFFF" d="M38.38,9.04c-0.16-0.13-0.4-0.19-0.71-0.19c-0.4,0-0.74,0.18-1.01,0.54s-0.4,0.86-0.4,1.48v2.87H34.9v-6
		h1.36v1.24h0.02c0.13-0.42,0.34-0.75,0.61-0.99c0.28-0.24,0.58-0.35,0.92-0.35c0.25,0,0.43,0.04,0.56,0.11V9.04z"/>
	<path fill="#FFFFFF" d="M43.95,13.75h-1.32v-0.94H42.6c-0.41,0.72-1.02,1.08-1.82,1.08c-0.59,0-1.05-0.16-1.39-0.48
		s-0.5-0.74-0.5-1.27c0-1.13,0.65-1.79,1.96-1.98l1.78-0.25c0-0.86-0.41-1.28-1.22-1.28c-0.71,0-1.36,0.25-1.93,0.74V8.17
		c0.63-0.38,1.36-0.56,2.19-0.56c1.52,0,2.27,0.75,2.27,2.24V13.75z M42.63,10.8l-1.26,0.18c-0.39,0.05-0.68,0.15-0.88,0.28
		s-0.3,0.38-0.3,0.73c0,0.25,0.09,0.46,0.27,0.62s0.42,0.24,0.73,0.24c0.41,0,0.76-0.15,1.03-0.44s0.41-0.66,0.41-1.1V10.8z"/>
	<path fill="#FFFFFF" d="M48.77,13.68c-0.27,0.13-0.62,0.2-1.05,0.2c-1.16,0-1.75-0.56-1.75-1.68V8.81h-1V7.75h1V6.36l1.36-0.39
		v1.78h1.44v1.07h-1.44v3c0,0.35,0.06,0.61,0.19,0.76s0.34,0.23,0.64,0.23c0.23,0,0.43-0.07,0.6-0.2V13.68z"/>
	<path fill="#FFFFFF" d="M54.95,11.12h-4.09c0.02,0.55,0.19,0.98,0.51,1.28s0.77,0.45,1.34,0.45c0.64,0,1.23-0.19,1.76-0.57v1.1
		c-0.55,0.34-1.27,0.52-2.17,0.52c-0.88,0-1.58-0.27-2.08-0.82s-0.75-1.31-0.75-2.3c0-0.93,0.28-1.69,0.83-2.28s1.24-0.88,2.06-0.88
		s1.46,0.26,1.9,0.79s0.67,1.26,0.67,2.2V11.12z M53.64,10.15c0-0.49-0.12-0.87-0.35-1.14s-0.54-0.41-0.94-0.41
		c-0.39,0-0.72,0.14-0.99,0.43s-0.44,0.66-0.5,1.12H53.64z"/>
</g>
<g>
</g>
<g>
</g>
<g>
</g>
<g>
</g>
<g>
</g>
<g>
</g>
</svg>
